<svg width="985" height="985" viewBox="0 0 985 985" fill="none" xmlns="http://www.w3.org/2000/svg">
<rect width="985" height="985" rx="461" fill="white"/>
<g clip-path="url(#clip0_86_46)">
<path d="M573.102 520.188C540.661 563.375 528.496 619.025 496.2 662.212C462.746 706.993 410.03 734.383 355.865 747.861C301.701 761.338 245.219 762.208 189.317 763.077C221.903 776.12 248.695 800.322 278.095 819.742C338.052 859.596 410.609 880.174 482.586 877.856C572.957 874.957 662.603 834.814 721.112 765.831C769.049 709.311 816.406 594.678 789.035 519.174C754.277 423.38 620.604 457.147 573.247 520.188H573.102Z" fill="#690C36"/>
<path d="M502.138 492.218C511 455.5 499.579 423.927 478 399C469.455 389.145 458.69 381.642 447.539 374.976C429.436 364.107 408.581 356.426 387.582 357.875C366.582 359.324 345.438 371.498 337.472 391.062C333.562 400.772 333.562 413.38 341.383 420.481C344.569 423.38 348.769 424.974 352.824 426.568C386.423 439.321 421.471 451.495 447.973 475.987C470.856 497.145 473.607 520.912 482.442 548.303C493.738 533.376 499.676 510.623 502.283 492.073L502.138 492.218Z" fill="#690C36" stroke="#690C36" stroke-width="11"/>
<path d="M606.266 381.063C624.08 369.614 646.672 365.846 667.093 371.063C682.01 374.831 695.478 383.092 710.25 388.019C725.022 392.947 742.401 393.961 754.566 384.541C767.745 374.397 770.497 354.397 763.401 339.325C756.304 324.254 744.286 315.072 728.5 310C712.714 304.928 701.51 300.935 685 300.5C674.573 300.21 655.651 302.225 645.659 305.703C637.693 308.602 621.872 316.348 615.5 322C587.694 346.057 571.943 382.947 571.364 420.627C580.5 405.5 590.336 391.352 606.266 381.063Z" fill="#690C36" stroke="#690C36" stroke-width="17"/>
<path d="M534.72 284.456C545.002 261.123 567.16 245.472 589.898 234.023C612.635 222.574 636.966 214.168 657.82 199.531C666.365 193.445 674.765 185.329 675.779 174.895C676.213 169.822 674.765 164.605 672.737 159.823C661.441 133.737 631.462 118.52 603.077 120.114C574.691 121.708 548.623 137.939 529.796 159.243C505.9 186.488 492.576 222.864 493.01 259.094C493.445 288.948 503.293 325.034 524.582 346.917C529.796 330.113 526.465 302.571 534.575 284.311L534.72 284.456Z" fill="#690C36" stroke="#690C36" stroke-width="15"/>
</g>
<defs>
<clipPath id="clip0_86_46">
<rect width="610" height="772" fill="white" transform="translate(187 106)"/>
</clipPath>
</defs>
</svg>
